<svg width="24" height="24" viewBox="0 0 24 24" fill="none" xmlns="http://www.w3.org/2000/svg">
<path d="M11 17C11 18.0609 10.5786 19.0783 9.82843 19.8284C9.07828 20.5786 8.06087 21 7 21C5.93913 21 4.92172 20.5786 4.17157 19.8284C3.42143 19.0783 3 18.0609 3 17V5C3 4.46957 3.21071 3.96086 3.58579 3.58579C3.96086 3.21071 4.46957 3 5 3H9C9.53043 3 10.0391 3.21071 10.4142 3.58579C10.7893 3.96086 11 4.46957 11 5V17Z" stroke="black" stroke-width="1.5" stroke-linecap="round" stroke-linejoin="round"/>
<path d="M16.7 13H19C19.5304 13 20.0391 13.2107 20.4142 13.5858C20.7893 13.9609 21 14.4696 21 15V19C21 19.5304 20.7893 20.0391 20.4142 20.4142C20.0391 20.7893 19.5304 21 19 21H7" stroke="black" stroke-width="1.5" stroke-linecap="round" stroke-linejoin="round"/>
<path d="M7 17H7.01" stroke="black" stroke-width="1.5" stroke-linecap="round" stroke-linejoin="round"/>
<path d="M11 7.99998L13.3 5.69998C13.5233 5.4759 13.7887 5.29818 14.081 5.17703C14.3732 5.05588 14.6865 4.99371 15.0029 4.99408C15.3192 4.99445 15.6324 5.05736 15.9243 5.1792C16.2163 5.30103 16.4812 5.47938 16.704 5.70398L18.6 7.59998C18.8306 7.82179 19.0145 8.08747 19.141 8.3814C19.2674 8.67532 19.3338 8.99156 19.3362 9.31151C19.3386 9.63146 19.277 9.94866 19.1551 10.2445C19.0331 10.5403 18.8532 10.8087 18.626 11.034L9.90002 19.8" stroke="black" stroke-width="1.5" stroke-linecap="round" stroke-linejoin="round"/>
</svg>
