<svg width="32" height="33" viewBox="0 0 32 33" fill="none" xmlns="http://www.w3.org/2000/svg">
<path d="M24 7.5H8C7.44772 7.5 7 8.20355 7 9.07143V16.9286C7 17.7964 7.44772 18.5 8 18.5H24C24.5523 18.5 25 17.7964 25 16.9286V9.07143C25 8.20355 24.5523 7.5 24 7.5Z" stroke="black" stroke-width="1.25" stroke-linecap="round" stroke-linejoin="round"/>
<path d="M10.4286 21.5H7.57143C7.25584 21.5 7 21.7558 7 22.0714V24.9286C7 25.2442 7.25584 25.5 7.57143 25.5H10.4286C10.7442 25.5 11 25.2442 11 24.9286V22.0714C11 21.7558 10.7442 21.5 10.4286 21.5Z" stroke="black" stroke-width="1.25" stroke-linecap="round" stroke-linejoin="round"/>
<path d="M24.4286 21.5H21.5714C21.2558 21.5 21 21.7558 21 22.0714V24.9286C21 25.2442 21.2558 25.5 21.5714 25.5H24.4286C24.7442 25.5 25 25.2442 25 24.9286V22.0714C25 21.7558 24.7442 21.5 24.4286 21.5Z" stroke="black" stroke-width="1.25" stroke-linecap="round" stroke-linejoin="round"/>
<path d="M17.4286 21.5H14.5714C14.2558 21.5 14 21.7558 14 22.0714V24.9286C14 25.2442 14.2558 25.5 14.5714 25.5H17.4286C17.7442 25.5 18 25.2442 18 24.9286V22.0714C18 21.7558 17.7442 21.5 17.4286 21.5Z" stroke="black" stroke-width="1.25" stroke-linecap="round" stroke-linejoin="round"/>
</svg>
